<svg xmlns="http://www.w3.org/2000/svg" enable-background="new 0 0 1024 1024" viewBox="0 0 1024 1024"><path fill="#7c189f" d="M875.1,514.9c-12.8,12.8-25.5,25.5-38.3,38.3c-30.7,30.7-61.3,61.3-92,92C707.9,682.1,670.9,719,634,756    c-31.9,31.9-63.9,63.9-95.8,95.8c-15.5,15.5-31.5,30.8-46.7,46.7c-0.2,0.2-0.5,0.5-0.7,0.7c14.1,0,28.3,0,42.4,0    c-14.8-14.8-29.7-29.7-44.5-44.5c-34.5-34.5-69-69-103.5-103.5c-39.8-39.8-79.5-79.5-119.3-119.3c-30.7-30.7-61.4-61.4-92.1-92.1    c-7.4-7.4-14.8-14.8-22.2-22.2c-1.9-1.9-3.9-3.9-5.8-5.8c-3.4-3.5-6.7-7.1-9.8-10.8c-1.6-1.8-3.1-3.7-4.6-5.5    c-0.9-1.1-1.8-2.3-2.7-3.4c6.1,7.3,2.5,3.2,1.2,1.5c-6.2-8.3-12-17.1-17.1-26.1c-4.8-8.5-9.2-17.3-13-26.4c1,2.4,2,4.8,3,7.2    C94,427.4,88.1,405.5,85,383.1c0.4,2.7,0.7,5.3,1.1,8c-3-22.7-3-45.7,0-68.5c-0.4,2.7-0.7,5.3-1.1,8c3.1-22.4,9-44.3,17.8-65.1    c-1,2.4-2,4.8-3,7.2c5.7-13.4,12.5-26.2,20.3-38.4c2.1-3.2,4.2-6.3,6.4-9.4c1.1-1.6,2.2-3.1,3.4-4.6c4.6-6.1-3.5,4.4-0.3,0.4    c4.7-5.8,9.6-11.5,14.8-17c5.8-6.1,11.9-11.9,18.2-17.4c1.7-1.5,3.4-2.9,5.1-4.3c1.7-1.4,8.3-5.9,0.4-0.5c3.4-2.3,6.6-4.9,10-7.3    c14.1-9.7,29.1-17.9,44.8-24.6c-2.4,1-4.8,2-7.2,3c20.7-8.6,42.3-14.6,64.4-17.7c-2.7,0.4-5.3,0.7-8,1.1c23.1-3.1,46.4-3.1,69.5,0    c-2.7-0.4-5.3-0.7-8-1.1c22.2,3.1,43.8,9,64.4,17.7c-2.4-1-4.8-2-7.2-3c13.9,5.9,27.3,13,40,21.3c3.2,2.1,6.4,4.3,9.5,6.5    c1.8,1.3,3.5,2.7,5.3,3.9c-7.3-5-2.5-1.9-0.8-0.6c6.3,5.1,12.4,10.5,18.2,16.2c9.3,9.1,18.4,18.4,27.6,27.6    c11.5,11.5,30.9,11.5,42.4,0c10.7-10.7,21.1-21.6,32.1-31.9c5.3-5,10.9-9.5,16.5-14.1c-7.7,6.5-2.2,1.7-0.4,0.3    c1.5-1.1,3.1-2.2,4.6-3.3c2.7-1.9,5.5-3.8,8.3-5.6c12.2-7.9,25.1-14.7,38.4-20.3c-2.4,1-4.8,2-7.2,3c20.9-8.8,42.7-14.7,65.1-17.8    c-2.7,0.4-5.3,0.7-8,1.1c22.7-3,45.7-3,68.5,0c-2.7-0.4-5.3-0.7-8-1.1c22.4,3.1,44.3,9,65.1,17.8c-2.4-1-4.8-2-7.2-3    c11.2,4.8,22,10.3,32.4,16.6c5.3,3.2,10.4,6.6,15.4,10.2c1.2,0.8,2.3,1.7,3.5,2.5c0.9,0.7,6,4.6,1.5,1.1c-4.3-3.3-0.1,0,0.9,0.8    c1.3,1.1,2.6,2.1,3.9,3.2c9.7,8.1,18.8,17,27.1,26.5c2.1,2.4,4.1,4.7,6.1,7.2c0.9,1.1,1.8,2.3,2.7,3.4c2,2.5-2.9-3.7-2.5-3.2    c0.8,0.9,1.5,1.9,2.2,2.9c3.7,5,7.2,10,10.5,15.3c7.4,11.7,13.8,23.9,19.2,36.6c-1-2.4-2-4.8-3-7.2c8.8,20.9,14.7,42.7,17.8,65.1    c-0.4-2.7-0.7-5.3-1.1-8c3,22.7,3,45.7,0,68.5c0.4-2.7,0.7-5.3,1.1-8c-3.1,22.4-9,44.3-17.8,65.1c1-2.4,2-4.8,3-7.2    c-6.2,14.4-13.6,28.3-22.3,41.4c-2.1,3.2-4.3,6.3-6.5,9.3c-0.8,1.1-4.9,6.5-1.5,2.1c3.4-4.4-1.2,1.5-2.1,2.6    C886.5,502.9,880.9,509,875.1,514.9c-11.1,11.1-12,31.4,0,42.4c11.9,11,30.6,11.9,42.4,0c22.2-22.3,41.2-48.5,54.6-77    c14.2-30.3,22.8-61.5,26.5-94.6c6.9-60.9-7.8-124.8-39.9-176.9c-34.5-56.1-87.8-98.3-149.9-119.9c-57.6-20-123.1-20.3-180.9-0.9    c-30.6,10.2-58.8,25.3-84.3,45c-17.3,13.4-32.4,28.9-47.8,44.3c-1.7,1.7-3.3,3.3-5,5c14.1,0,28.3,0,42.4,0    c-14.1-14.1-27.8-28.9-43.2-41.7c-32-26.5-68.9-46.4-109.1-57.2c-77.2-20.6-162.9-7.7-229.7,36.7C89.6,161,44.5,225.5,29.9,298.3    c-13.9,69.1-2.8,142.1,33.2,203c15.5,26.3,35.9,48.4,57.3,69.8c20.4,20.4,40.7,40.7,61.1,61.1c29.8,29.8,59.6,59.6,89.4,89.4    c32,32,64,64,96,96c26.7,26.7,53.4,53.4,80.1,80.1c14,14,27.9,27.9,41.9,41.9c0.6,0.6,1.3,1.3,1.9,1.9c11.5,11.5,30.9,11.5,42.4,0    c12.8-12.8,25.5-25.5,38.3-38.3c30.7-30.7,61.3-61.3,92-92c36.9-36.9,73.9-73.9,110.8-110.8c31.9-31.9,63.9-63.9,95.8-95.8    c15.6-15.6,31.4-30.9,46.7-46.7c0.2-0.2,0.5-0.5,0.7-0.7c11.1-11.1,11.9-31.5,0-42.4C905.5,503.9,886.9,503,875.1,514.9z" class="color000000 svgShape"/></svg>