<svg  viewBox="0 0 1398.13 194.87" fill="#211E22" xmlns="http://www.w3.org/2000/svg" width="142px" ><title>Joss &amp; Main</title><path d="M215.66 189.94c-55.51 16.25-114.47-12.06-131.7-63.24S97.78 20.84 153.29 4.58 267.77 16.64 285 67.82s-13.82 105.86-69.34 122.12Zm46.29-116.17c-16.25-48.3-59.1-78-106.9-64s-64.3 62.65-48 111 59.1 78 106.91 64 64.25-62.7 47.99-111ZM369.67 194.86c-36.24-.52-59.92-28.27-59.92-28.27l4-6.3s19.13 27.62 57 27.62c22.21 0 47.25-14.75 47.6-39.67s-33.27-36.41-57.27-47.26c-26.82-12.09-47.95-28.21-47.95-57.47 0-27.39 24.19-43.24 55.53-42.8a70.51 70.51 0 0 1 38.82 11.56l-3.16 5.4S393.67 6.15 368.15 5.79c-9-.13-20.49 2.86-26.18 8.67-5.4 5.55-8.4 13.38-8.52 22.64-.36 25.6 24.87 35.55 49.52 46.7 25.82 11.71 50.6 24.33 50.14 55.16-.54 38.21-30.74 56.08-62.9 55.9ZM505.28 194.86c-36.24-.52-59.91-28.27-59.91-28.27l4-6.3s19.13 27.62 57 27.62c22.2 0 47.24-14.75 47.59-39.67s-33.27-36.41-57.27-47.26c-26.82-12.09-47.37-23.58-46.89-57.47.38-27.38 23.14-43.24 54.47-42.8a70.5 70.5 0 0 1 38.81 11.56l-3.16 5.4S529.27 6.15 503.76 5.79c-9-.13-20.49 2.86-26.19 8.67-5.45 5.56-8.4 13.39-8.53 22.65-.34 25.59 23.84 33.4 48.53 44.53 25.82 11.68 51.62 26.49 51.19 57.32-.54 38.21-30.74 56.08-62.9 55.9ZM1398.13 2.49h-8.41v176.36L1276.17 2.63h-21.76l10.17 15.86v173.35h8.41V31.6l102.79 160.24h22.31l-.16-.25.2.1V2.49zM1149.51 192.64h20.71L1103.57 2.51h-21.2l.08.25-68.65 189.9h8.88l16.54-45.85h94.1Zm-107.19-54.46 44.46-123.21 43.5 123.21ZM680.57 166.58a47.57 47.57 0 0 1-23.36-89l-27.45-32.43h82.32v17.36L699.8 52.15h-46.05l66.19 77.64a33.25 33.25 0 0 0 .77-7.09v-21.57h7.05v21.57a38.66 38.66 0 0 1-2.42 13.4l25.23 28.29h-19.56l-13.17-15.33a49 49 0 0 1-24.95 15.9 47.56 47.56 0 0 1-12.32 1.62Zm-18.7-83.53c-12.65 7.75-17.45 25.09-12.22 44.61 3 11 8.57 20.18 15.8 25.73a28.54 28.54 0 0 0 25.64 5 41.61 41.61 0 0 0 22.22-14.62ZM31.73 16.22l-14-12h33v144.69c0 35.35-16.78 45.88-32 45.88-14.42 0-18.74-10.55-18.74-10.55a20.58 20.58 0 0 0 17.58-1.41c8.45-4.64 14.15-19.63 14.15-33.92ZM1200.13 2.89h19v189h-19zM989.13 2.9h-19.95v14.16L906.5 151.83 833.04 2.9h-20.69l7.69 15.61v173.35h8.41V35.47l63.16 127.79 17.54.02 60.03-129.54v158.2h19.5v-.04h.45V2.9z"></path></svg>