<svg  viewBox="0 0 500 76" fill="#3D4A27" xmlns="http://www.w3.org/2000/svg" role="img" width="142px" ><title>Birch Lane</title><g transform="translate(119.948 1.13)"><path d="M29.574 34.529h-8.45v-7.627c0-7.084.155-14.09.449-21.027h6.662c5.633 0 9.963 1.307 12.987 3.916 3.023 2.612 4.535 6.323 4.535 11.132 0 4.193-1.391 7.51-4.174 9.947-2.783 2.44-6.787 3.659-12.009 3.659Zm38.183 29.147c-1.664-.217-3.382.775-3.94 2.357-.373 1.06-.316 3.126-1.579 3.104-1.804-.033-2.679-3.174-6.414-11.714-2.949-6.85-5.146-11.693-10.06-15.068-2.312-1.586-4.678-2.444-7.232-2.865 12.84-2.892 16.725-8.5 18.565-12.007 3.644-6.948 2.182-13.856-.388-17.76C54.356 6.149 49.511 0 33.854.02L0 0v3.202c2.748.345 4.941 1.093 5.971 2.055 1.031.963 1.873 2.858 1.96 5.72.461 15.325.41 38.132 0 50.66-.096 2.897-.948 4.894-2.011 5.993C4.853 68.73 2.817 69.52 0 70v3.196h32.147v-3.21c-4.055-.48-6.094-1.547-7.572-2.613-1.478-1.065-2.399-3.042-2.834-5.89-.41-2.688-.618-6.888-.618-21.032 14.682-.14 16.844 4.869 20.45 15.33 1.904 5.524 3 8.304 5.162 11.45 4.875 7.096 11.81 7.19 16.126 7.082 5.832-.145 7.758-4.476 7.923-5.5.365-2.254-.39-4.794-3.027-5.137Zm309.1 4.462c-6.733.69-9.489.59-51.918.59-34.403 0-44.442.315-53.392-.652a2.886 2.886 0 0 0-3.198 2.868 2.888 2.888 0 0 0 3.106 2.884c8.337-.646 19.547-.614 53.3-.614 45.291 0 47.448.343 52.383.588a2.782 2.782 0 0 0 2.918-2.78 2.9 2.9 0 0 0-3.2-2.884M312.14 32.932h-2.726c-.596 1.863-1.85 5.105-2.892 7.727a6.69 6.69 0 0 1-6.09 4.222c-3.8.075-9.071.15-11.713.056a3.926 3.926 0 0 1-1.943-.596c-.764-.892-1.31-2.185-1.443-3.896-.34-4.322-.34-26.934 0-31.256.174-2.256 1.059-3.786 2.22-4.62 1.16-.834 2.763-1.675 5.939-2.052V.001h-25.143v2.501c2.212.385 3.735 1.002 4.576 1.865.827.863 1.472 2.429 1.574 4.699.145 3.213.21 13.408.239 18.478-.03 5.076-.094 9.804-.24 13.017-.1 2.277-.746 3.844-1.573 4.707-.841.863-2.364 1.48-4.576 1.863v2.503l43.791-.003c-.411-4.845-.369-11.177 0-16.699M359.025 0v2.517c3.176.377 4.78 1.218 5.94 2.052 1.16.834 2.044 2.364 2.218 4.62.11 1.395.176 13.531.212 23.814L337.768 0h-16.54v2.502c2.212.385 3.735 1.002 4.576 1.865.827.863 1.472 2.429 1.574 4.699.14 3.104.144 28.316 0 31.495-.102 2.277-.747 3.844-1.574 4.707-.84.863-2.364 1.48-4.575 1.863v2.503h21.03v-2.517c-3.176-.377-4.779-1.219-5.94-2.053-1.16-.833-2.045-2.363-2.218-4.619-.14-1.777-.248-29.314-.248-29.314l35.343 39.2h4.674s-.177-23.614-.204-28.24c.03-5.077.095-9.806.24-13.018.101-2.277.747-3.844 1.574-4.706.84-.863 2.364-1.48 4.576-1.865V.001h-21.031"></path></g><path d="M45.223 64.673c-4.339 4.632-12.723 3.272-24.192 3.452V40.198c10.58.166 18.24-1.324 24.067 4.34 2.466 2.328 3.839 5.414 3.839 9.678 0 4.467-1.053 7.573-3.714 10.457ZM21.031 7.005h8.97c4.736 0 9.283 1.081 11.821 3.25 2.546 2.16 3.815 5.344 3.815 9.528 0 4.606-1.305 8.13-3.916 10.567-2.611 2.444-7.637 3.662-13.271 3.662h-7.42V7.005Zm20.958 29.32c5.084-1.479 9.05-3.502 11.893-6.077 3.3-2.987 4.946-6.817 4.946-11.494 0-3.43-.96-8.078-5.267-11.749-5.979-5.094-15.205-5.874-21.116-5.874H0v3.191c2.814.486 4.93 1.084 5.996 2.18 1.059 1.102 1.683 3.294 1.836 6.19.716 13.482.514 33.081 0 50.074-.088 2.898-.95 4.896-2.008 5.998-1.067 1.095-3.01 1.885-5.824 2.371v3.191l34.817-.015c10.592.016 18.073-3.009 22.64-7.625 3.438-3.477 4.671-8.003 4.671-11.853 0-3.641-.864-6.834-2.574-9.587-1.793-2.886-6.537-8.053-17.565-8.92ZM97.804 6.487c1.066-1.095 3.17-1.679 5.984-2.165v-3.19H74.502v3.19c2.814.486 4.93 1.084 5.996 2.18 1.058 1.102 1.682 3.294 1.836 6.19.716 13.482.514 33.081 0 50.074-.088 2.898-.95 4.896-2.009 5.998-1.066 1.095-3.01 1.885-5.823 2.371v3.191h29.286v-3.19c-2.813-.487-4.757-1.277-5.823-2.372-1.06-1.102-1.922-3.1-2.01-5.998-.514-16.993-.715-36.592 0-50.075.155-2.895.79-5.102 1.849-6.204m163.68 61.742c-2.178 1.485-13.07 7.229-26.934 7.229-23.073 0-39.115-15.943-39.115-37.332 0-21.291 16.932-38.126 40.5-38.126 10.794 0 19.41 2.377 25.154 4.259l2.178 18.815-2.162.643C251.913 9.825 245.4 7.29 234.805 7.29c-17.131 0-24.408 14.442-24.79 30.826-.382 16.384 8.788 30.051 24.433 30.051 12.874 0 20.457-6.837 26.812-21.046l2.403.609-2.179 20.498m89.713-5.462c.276 2.886.95 4.896 2.009 5.998 1.066 1.095 3.124 1.885 5.945 2.371v3.191h-32.168V71.12c4.054-.485 6.092-1.551 7.57-2.617 1.48-1.066 2.423-3.04 2.836-5.89.649-4.513.576-14.2.617-22.415h-39.169s.034 17.902.617 22.416c.413 2.85 1.356 4.823 2.835 5.889 1.48 1.066 3.518 2.132 7.572 2.617v3.206h-32.047v-3.19c2.814-.487 4.757-1.277 5.823-2.372 1.06-1.102 1.921-3.1 2.009-5.998.515-16.993.716-36.592 0-50.075-.153-2.895-.95-4.895-2.009-5.997-1.066-1.095-3.01-1.886-5.823-2.372v-3.19h32.047v3.205c-4.054.486-6.092 1.552-7.572 2.618-1.479 1.066-2.625 3.017-2.835 5.889-.854 11.685-.617 21.168-.617 21.168h39.169s.298-9.614-.617-21.168c-.227-2.871-1.356-4.823-2.835-5.889-1.48-1.066-3.517-2.132-7.571-2.618V1.131h32.168v3.191c-2.821.486-4.879 1.277-5.945 2.372-1.06 1.102-1.88 3.1-2.009 5.997-.595 13.483-.203 47.893 0 50.075"></path></svg>